<?xml version="1.0" encoding="utf-8"?>
<!-- Generator: Adobe Illustrator 15.1.0, SVG Export Plug-In . SVG Version: 6.00 Build 0)  -->
<!DOCTYPE svg PUBLIC "-//W3C//DTD SVG 1.1//EN" "http://www.w3.org/Graphics/SVG/1.1/DTD/svg11.dtd">
<svg version="1.1" id="Layer_1" xmlns="http://www.w3.org/2000/svg" xmlns:xlink="http://www.w3.org/1999/xlink" x="0px" y="0px"
	 width="280.5px" height="242.5px" viewBox="0 0 280.5 242.5" enable-background="new 0 0 280.5 242.5" xml:space="preserve">
<g>
	<g>
		<g>
			<polyline fill="none" stroke="#B5B5B5" stroke-width="0.5" stroke-miterlimit="10" points="0.25,1.25 0.25,0.25 1.25,0.25 			"/>
			
				<line fill="none" stroke="#B5B5B5" stroke-width="0.5" stroke-miterlimit="10" stroke-dasharray="2,2" x1="3.25" y1="0.25" x2="278.25" y2="0.25"/>
			<polyline fill="none" stroke="#B5B5B5" stroke-width="0.5" stroke-miterlimit="10" points="279.25,0.25 280.25,0.25 280.25,1.25 
							"/>
			
				<line fill="none" stroke="#B5B5B5" stroke-width="0.5" stroke-miterlimit="10" stroke-dasharray="1.9835,1.9835" x1="280.25" y1="3.233" x2="280.25" y2="240.258"/>
			<polyline fill="none" stroke="#B5B5B5" stroke-width="0.5" stroke-miterlimit="10" points="280.25,241.25 280.25,242.25 
				279.25,242.25 			"/>
			
				<line fill="none" stroke="#B5B5B5" stroke-width="0.5" stroke-miterlimit="10" stroke-dasharray="2,2" x1="277.25" y1="242.25" x2="2.25" y2="242.25"/>
			<polyline fill="none" stroke="#B5B5B5" stroke-width="0.5" stroke-miterlimit="10" points="1.25,242.25 0.25,242.25 0.25,241.25 
							"/>
			
				<line fill="none" stroke="#B5B5B5" stroke-width="0.5" stroke-miterlimit="10" stroke-dasharray="1.9835,1.9835" x1="0.25" y1="239.267" x2="0.25" y2="2.242"/>
		</g>
	</g>
	<g>
		<g>
			<line fill="none" stroke="#B5B5B5" stroke-width="0.5" stroke-miterlimit="10" x1="0.25" y1="227.125" x2="1.25" y2="227.125"/>
			
				<line fill="none" stroke="#B5B5B5" stroke-width="0.5" stroke-miterlimit="10" stroke-dasharray="2,2" x1="3.25" y1="227.125" x2="278.25" y2="227.125"/>
			
				<line fill="none" stroke="#B5B5B5" stroke-width="0.5" stroke-miterlimit="10" x1="279.25" y1="227.125" x2="280.25" y2="227.125"/>
		</g>
	</g>
	<g>
		<g>
			<line fill="none" stroke="#B5B5B5" stroke-width="0.5" stroke-miterlimit="10" x1="0.25" y1="212" x2="1.25" y2="212"/>
			
				<line fill="none" stroke="#B5B5B5" stroke-width="0.5" stroke-miterlimit="10" stroke-dasharray="2,2" x1="3.25" y1="212" x2="278.25" y2="212"/>
			<line fill="none" stroke="#B5B5B5" stroke-width="0.5" stroke-miterlimit="10" x1="279.25" y1="212" x2="280.25" y2="212"/>
		</g>
	</g>
	<g>
		<g>
			<line fill="none" stroke="#B5B5B5" stroke-width="0.5" stroke-miterlimit="10" x1="0.25" y1="196.875" x2="1.25" y2="196.875"/>
			
				<line fill="none" stroke="#B5B5B5" stroke-width="0.5" stroke-miterlimit="10" stroke-dasharray="2,2" x1="3.25" y1="196.875" x2="278.25" y2="196.875"/>
			
				<line fill="none" stroke="#B5B5B5" stroke-width="0.5" stroke-miterlimit="10" x1="279.25" y1="196.875" x2="280.25" y2="196.875"/>
		</g>
	</g>
	<g>
		<g>
			<line fill="none" stroke="#B5B5B5" stroke-width="0.5" stroke-miterlimit="10" x1="0.25" y1="181.75" x2="1.25" y2="181.75"/>
			
				<line fill="none" stroke="#B5B5B5" stroke-width="0.5" stroke-miterlimit="10" stroke-dasharray="2,2" x1="3.25" y1="181.75" x2="278.25" y2="181.75"/>
			
				<line fill="none" stroke="#B5B5B5" stroke-width="0.5" stroke-miterlimit="10" x1="279.25" y1="181.75" x2="280.25" y2="181.75"/>
		</g>
	</g>
	<g>
		<g>
			<line fill="none" stroke="#B5B5B5" stroke-width="0.5" stroke-miterlimit="10" x1="0.25" y1="166.625" x2="1.25" y2="166.625"/>
			
				<line fill="none" stroke="#B5B5B5" stroke-width="0.5" stroke-miterlimit="10" stroke-dasharray="2,2" x1="3.25" y1="166.625" x2="278.25" y2="166.625"/>
			
				<line fill="none" stroke="#B5B5B5" stroke-width="0.5" stroke-miterlimit="10" x1="279.25" y1="166.625" x2="280.25" y2="166.625"/>
		</g>
	</g>
	<g>
		<g>
			<line fill="none" stroke="#B5B5B5" stroke-width="0.5" stroke-miterlimit="10" x1="0.25" y1="151.5" x2="1.25" y2="151.5"/>
			
				<line fill="none" stroke="#B5B5B5" stroke-width="0.5" stroke-miterlimit="10" stroke-dasharray="2,2" x1="3.25" y1="151.5" x2="278.25" y2="151.5"/>
			<line fill="none" stroke="#B5B5B5" stroke-width="0.5" stroke-miterlimit="10" x1="279.25" y1="151.5" x2="280.25" y2="151.5"/>
		</g>
	</g>
	<g>
		<g>
			<line fill="none" stroke="#B5B5B5" stroke-width="0.5" stroke-miterlimit="10" x1="0.25" y1="136.375" x2="1.25" y2="136.375"/>
			
				<line fill="none" stroke="#B5B5B5" stroke-width="0.5" stroke-miterlimit="10" stroke-dasharray="2,2" x1="3.25" y1="136.375" x2="278.25" y2="136.375"/>
			
				<line fill="none" stroke="#B5B5B5" stroke-width="0.5" stroke-miterlimit="10" x1="279.25" y1="136.375" x2="280.25" y2="136.375"/>
		</g>
	</g>
	<g>
		<g>
			<line fill="none" stroke="#B5B5B5" stroke-width="0.5" stroke-miterlimit="10" x1="0.25" y1="121.25" x2="1.25" y2="121.25"/>
			
				<line fill="none" stroke="#B5B5B5" stroke-width="0.5" stroke-miterlimit="10" stroke-dasharray="2,2" x1="3.25" y1="121.25" x2="278.25" y2="121.25"/>
			
				<line fill="none" stroke="#B5B5B5" stroke-width="0.5" stroke-miterlimit="10" x1="279.25" y1="121.25" x2="280.25" y2="121.25"/>
		</g>
	</g>
	<g>
		<g>
			<line fill="none" stroke="#B5B5B5" stroke-width="0.5" stroke-miterlimit="10" x1="0.25" y1="106.125" x2="1.25" y2="106.125"/>
			
				<line fill="none" stroke="#B5B5B5" stroke-width="0.5" stroke-miterlimit="10" stroke-dasharray="2,2" x1="3.25" y1="106.125" x2="278.25" y2="106.125"/>
			
				<line fill="none" stroke="#B5B5B5" stroke-width="0.5" stroke-miterlimit="10" x1="279.25" y1="106.125" x2="280.25" y2="106.125"/>
		</g>
	</g>
	<g>
		<g>
			<line fill="none" stroke="#B5B5B5" stroke-width="0.5" stroke-miterlimit="10" x1="0.25" y1="91" x2="1.25" y2="91"/>
			
				<line fill="none" stroke="#B5B5B5" stroke-width="0.5" stroke-miterlimit="10" stroke-dasharray="2,2" x1="3.25" y1="91" x2="278.25" y2="91"/>
			<line fill="none" stroke="#B5B5B5" stroke-width="0.5" stroke-miterlimit="10" x1="279.25" y1="91" x2="280.25" y2="91"/>
		</g>
	</g>
	<g>
		<g>
			<line fill="none" stroke="#B5B5B5" stroke-width="0.5" stroke-miterlimit="10" x1="0.25" y1="75.875" x2="1.25" y2="75.875"/>
			
				<line fill="none" stroke="#B5B5B5" stroke-width="0.5" stroke-miterlimit="10" stroke-dasharray="2,2" x1="3.25" y1="75.875" x2="278.25" y2="75.875"/>
			
				<line fill="none" stroke="#B5B5B5" stroke-width="0.5" stroke-miterlimit="10" x1="279.25" y1="75.875" x2="280.25" y2="75.875"/>
		</g>
	</g>
	<g>
		<g>
			<line fill="none" stroke="#B5B5B5" stroke-width="0.5" stroke-miterlimit="10" x1="0.25" y1="60.75" x2="1.25" y2="60.75"/>
			
				<line fill="none" stroke="#B5B5B5" stroke-width="0.5" stroke-miterlimit="10" stroke-dasharray="2,2" x1="3.25" y1="60.75" x2="278.25" y2="60.75"/>
			<line fill="none" stroke="#B5B5B5" stroke-width="0.5" stroke-miterlimit="10" x1="279.25" y1="60.75" x2="280.25" y2="60.75"/>
		</g>
	</g>
	<g>
		<g>
			<line fill="none" stroke="#B5B5B5" stroke-width="0.5" stroke-miterlimit="10" x1="0.25" y1="45.625" x2="1.25" y2="45.625"/>
			
				<line fill="none" stroke="#B5B5B5" stroke-width="0.5" stroke-miterlimit="10" stroke-dasharray="2,2" x1="3.25" y1="45.625" x2="278.25" y2="45.625"/>
			
				<line fill="none" stroke="#B5B5B5" stroke-width="0.5" stroke-miterlimit="10" x1="279.25" y1="45.625" x2="280.25" y2="45.625"/>
		</g>
	</g>
	<g>
		<g>
			<line fill="none" stroke="#B5B5B5" stroke-width="0.5" stroke-miterlimit="10" x1="0.25" y1="30.5" x2="1.25" y2="30.5"/>
			
				<line fill="none" stroke="#B5B5B5" stroke-width="0.5" stroke-miterlimit="10" stroke-dasharray="2,2" x1="3.25" y1="30.5" x2="278.25" y2="30.5"/>
			<line fill="none" stroke="#B5B5B5" stroke-width="0.5" stroke-miterlimit="10" x1="279.25" y1="30.5" x2="280.25" y2="30.5"/>
		</g>
	</g>
	<g>
		<g>
			<line fill="none" stroke="#B5B5B5" stroke-width="0.5" stroke-miterlimit="10" x1="0.25" y1="15.375" x2="1.25" y2="15.375"/>
			
				<line fill="none" stroke="#B5B5B5" stroke-width="0.5" stroke-miterlimit="10" stroke-dasharray="2,2" x1="3.25" y1="15.375" x2="278.25" y2="15.375"/>
			
				<line fill="none" stroke="#B5B5B5" stroke-width="0.5" stroke-miterlimit="10" x1="279.25" y1="15.375" x2="280.25" y2="15.375"/>
		</g>
	</g>
	<g>
		<g>
			<line fill="none" stroke="#B5B5B5" stroke-width="0.5" stroke-miterlimit="10" x1="260.221" y1="0.25" x2="260.221" y2="1.25"/>
			
				<line fill="none" stroke="#B5B5B5" stroke-width="0.5" stroke-miterlimit="10" stroke-dasharray="1.9835,1.9835" x1="260.221" y1="3.233" x2="260.221" y2="240.258"/>
			
				<line fill="none" stroke="#B5B5B5" stroke-width="0.5" stroke-miterlimit="10" x1="260.221" y1="241.25" x2="260.221" y2="242.25"/>
		</g>
	</g>
	<g>
		<g>
			<line fill="none" stroke="#B5B5B5" stroke-width="0.5" stroke-miterlimit="10" x1="240.26" y1="0.25" x2="240.26" y2="1.25"/>
			
				<line fill="none" stroke="#B5B5B5" stroke-width="0.5" stroke-miterlimit="10" stroke-dasharray="1.9835,1.9835" x1="240.26" y1="3.233" x2="240.26" y2="240.258"/>
			
				<line fill="none" stroke="#B5B5B5" stroke-width="0.5" stroke-miterlimit="10" x1="240.26" y1="241.25" x2="240.26" y2="242.25"/>
		</g>
	</g>
	<g>
		<g>
			<line fill="none" stroke="#B5B5B5" stroke-width="0.5" stroke-miterlimit="10" x1="220.23" y1="0.25" x2="220.23" y2="1.25"/>
			
				<line fill="none" stroke="#B5B5B5" stroke-width="0.5" stroke-miterlimit="10" stroke-dasharray="1.9835,1.9835" x1="220.23" y1="3.233" x2="220.23" y2="240.258"/>
			
				<line fill="none" stroke="#B5B5B5" stroke-width="0.5" stroke-miterlimit="10" x1="220.23" y1="241.25" x2="220.23" y2="242.25"/>
		</g>
	</g>
	<g>
		<g>
			<line fill="none" stroke="#B5B5B5" stroke-width="0.5" stroke-miterlimit="10" x1="200.27" y1="0.25" x2="200.27" y2="1.25"/>
			
				<line fill="none" stroke="#B5B5B5" stroke-width="0.5" stroke-miterlimit="10" stroke-dasharray="1.9835,1.9835" x1="200.27" y1="3.233" x2="200.27" y2="240.258"/>
			
				<line fill="none" stroke="#B5B5B5" stroke-width="0.5" stroke-miterlimit="10" x1="200.27" y1="241.25" x2="200.27" y2="242.25"/>
		</g>
	</g>
	<g>
		<g>
			<line fill="none" stroke="#B5B5B5" stroke-width="0.5" stroke-miterlimit="10" x1="180.24" y1="0.25" x2="180.24" y2="1.25"/>
			
				<line fill="none" stroke="#B5B5B5" stroke-width="0.5" stroke-miterlimit="10" stroke-dasharray="1.9835,1.9835" x1="180.24" y1="3.233" x2="180.24" y2="240.258"/>
			
				<line fill="none" stroke="#B5B5B5" stroke-width="0.5" stroke-miterlimit="10" x1="180.24" y1="241.25" x2="180.24" y2="242.25"/>
		</g>
	</g>
	<g>
		<g>
			<line fill="none" stroke="#B5B5B5" stroke-width="0.5" stroke-miterlimit="10" x1="160.279" y1="0.25" x2="160.279" y2="1.25"/>
			
				<line fill="none" stroke="#B5B5B5" stroke-width="0.5" stroke-miterlimit="10" stroke-dasharray="1.9835,1.9835" x1="160.279" y1="3.233" x2="160.279" y2="240.258"/>
			
				<line fill="none" stroke="#B5B5B5" stroke-width="0.5" stroke-miterlimit="10" x1="160.279" y1="241.25" x2="160.279" y2="242.25"/>
		</g>
	</g>
	<g>
		<g>
			<line fill="none" stroke="#B5B5B5" stroke-width="0.5" stroke-miterlimit="10" x1="140.25" y1="0.25" x2="140.25" y2="1.25"/>
			
				<line fill="none" stroke="#B5B5B5" stroke-width="0.5" stroke-miterlimit="10" stroke-dasharray="1.9835,1.9835" x1="140.25" y1="3.233" x2="140.25" y2="240.258"/>
			
				<line fill="none" stroke="#B5B5B5" stroke-width="0.5" stroke-miterlimit="10" x1="140.25" y1="241.25" x2="140.25" y2="242.25"/>
		</g>
	</g>
	<g>
		<g>
			<line fill="none" stroke="#B5B5B5" stroke-width="0.5" stroke-miterlimit="10" x1="120.221" y1="0.25" x2="120.221" y2="1.25"/>
			
				<line fill="none" stroke="#B5B5B5" stroke-width="0.5" stroke-miterlimit="10" stroke-dasharray="1.9835,1.9835" x1="120.221" y1="3.233" x2="120.221" y2="240.258"/>
			
				<line fill="none" stroke="#B5B5B5" stroke-width="0.5" stroke-miterlimit="10" x1="120.221" y1="241.25" x2="120.221" y2="242.25"/>
		</g>
	</g>
	<g>
		<g>
			<line fill="none" stroke="#B5B5B5" stroke-width="0.5" stroke-miterlimit="10" x1="100.26" y1="0.25" x2="100.26" y2="1.25"/>
			
				<line fill="none" stroke="#B5B5B5" stroke-width="0.5" stroke-miterlimit="10" stroke-dasharray="1.9835,1.9835" x1="100.26" y1="3.233" x2="100.26" y2="240.258"/>
			
				<line fill="none" stroke="#B5B5B5" stroke-width="0.5" stroke-miterlimit="10" x1="100.26" y1="241.25" x2="100.26" y2="242.25"/>
		</g>
	</g>
	<g>
		<g>
			<line fill="none" stroke="#B5B5B5" stroke-width="0.5" stroke-miterlimit="10" x1="80.23" y1="0.25" x2="80.23" y2="1.25"/>
			
				<line fill="none" stroke="#B5B5B5" stroke-width="0.5" stroke-miterlimit="10" stroke-dasharray="1.9835,1.9835" x1="80.23" y1="3.233" x2="80.23" y2="240.258"/>
			<line fill="none" stroke="#B5B5B5" stroke-width="0.5" stroke-miterlimit="10" x1="80.23" y1="241.25" x2="80.23" y2="242.25"/>
		</g>
	</g>
	<g>
		<g>
			<line fill="none" stroke="#B5B5B5" stroke-width="0.5" stroke-miterlimit="10" x1="60.27" y1="0.25" x2="60.27" y2="1.25"/>
			
				<line fill="none" stroke="#B5B5B5" stroke-width="0.5" stroke-miterlimit="10" stroke-dasharray="1.9835,1.9835" x1="60.27" y1="3.233" x2="60.27" y2="240.258"/>
			<line fill="none" stroke="#B5B5B5" stroke-width="0.5" stroke-miterlimit="10" x1="60.27" y1="241.25" x2="60.27" y2="242.25"/>
		</g>
	</g>
	<g>
		<g>
			<line fill="none" stroke="#B5B5B5" stroke-width="0.5" stroke-miterlimit="10" x1="40.24" y1="0.25" x2="40.24" y2="1.25"/>
			
				<line fill="none" stroke="#B5B5B5" stroke-width="0.5" stroke-miterlimit="10" stroke-dasharray="1.9835,1.9835" x1="40.24" y1="3.233" x2="40.24" y2="240.258"/>
			<line fill="none" stroke="#B5B5B5" stroke-width="0.5" stroke-miterlimit="10" x1="40.24" y1="241.25" x2="40.24" y2="242.25"/>
		</g>
	</g>
	<g>
		<g>
			<line fill="none" stroke="#B5B5B5" stroke-width="0.5" stroke-miterlimit="10" x1="20.279" y1="0.25" x2="20.279" y2="1.25"/>
			
				<line fill="none" stroke="#B5B5B5" stroke-width="0.5" stroke-miterlimit="10" stroke-dasharray="1.9835,1.9835" x1="20.279" y1="3.233" x2="20.279" y2="240.258"/>
			
				<line fill="none" stroke="#B5B5B5" stroke-width="0.5" stroke-miterlimit="10" x1="20.279" y1="241.25" x2="20.279" y2="242.25"/>
		</g>
	</g>
</g>
<g>
	<rect x="20.279" y="61.188" fill="#FFFF00" stroke="#000000" stroke-miterlimit="10" width="181" height="160"/>
	<polygon fill="#4A79C6" stroke="#000000" stroke-miterlimit="10" points="254.279,21.313 110.779,21.313 20.279,61.188 
		201.279,61.188 	"/>
	<polygon fill="#4A79C6" stroke="#000000" stroke-miterlimit="10" points="254.279,149.188 201.279,221.188 201.279,61.188 
		254.279,21.313 	"/>
</g>
<text transform="matrix(1 0 0 1 81.5835 74.25)" font-family="'MyriadPro-Regular'" font-size="13">Products</text>
<text transform="matrix(0 1 -1 0 184.251 123.917)" font-family="'MyriadPro-Regular'" font-size="13">Cities</text>
<text transform="matrix(0.766 -0.6428 0.6428 0.766 220.2305 63.854)" font-family="'MyriadPro-Regular'" font-size="13">Time</text>
<g>
	<path fill="#FFFFFF" d="M113.912,57.669l-1.324-1.5l-2.458,2.168l-2.169-2.458l-1.5,1.324l2.169,2.458l-2.459,2.169l1.324,1.5
		l2.458-2.169l2.169,2.458l1.5-1.324l-2.168-2.458L113.912,57.669z"/>
	<line fill="none" stroke="#0600FF" stroke-miterlimit="10" x1="107.542" y1="56.917" x2="112.542" y2="62.583"/>
	<line fill="none" stroke="#0600FF" stroke-miterlimit="10" x1="107.208" y1="62.25" x2="112.875" y2="57.25"/>
</g>
<g>
	<path fill="#FFFFFF" d="M24.15,137.646l-1.324-1.5l-2.458,2.168l-2.169-2.459l-1.5,1.324l2.169,2.459l-2.459,2.17l1.324,1.498
		l2.458-2.168l2.169,2.459l1.5-1.324l-2.168-2.459L24.15,137.646z"/>
	<line fill="none" stroke="#0600FF" stroke-miterlimit="10" x1="17.78" y1="136.893" x2="22.78" y2="142.561"/>
	<line fill="none" stroke="#0600FF" stroke-miterlimit="10" x1="17.446" y1="142.227" x2="23.113" y2="137.227"/>
</g>
<g>
	<path fill="#FFFFFF" d="M204.141,137.646l-1.324-1.5l-2.458,2.168l-2.169-2.459l-1.5,1.324l2.169,2.459l-2.459,2.17l1.324,1.498
		l2.458-2.168l2.17,2.459l1.499-1.324l-2.169-2.459L204.141,137.646z"/>
	<line fill="none" stroke="#0600FF" stroke-miterlimit="10" x1="197.77" y1="136.893" x2="202.77" y2="142.561"/>
	<line fill="none" stroke="#0600FF" stroke-miterlimit="10" x1="197.437" y1="142.227" x2="203.104" y2="137.227"/>
</g>
<g>
	<path fill="#FFFFFF" d="M113.912,217.758l-1.324-1.5l-2.458,2.168l-2.169-2.458l-1.5,1.324l2.169,2.458l-2.459,2.17l1.324,1.499
		l2.458-2.169l2.169,2.459l1.5-1.324l-2.168-2.459L113.912,217.758z"/>
	<line fill="none" stroke="#0600FF" stroke-miterlimit="10" x1="107.542" y1="217.005" x2="112.542" y2="222.672"/>
	<line fill="none" stroke="#0600FF" stroke-miterlimit="10" x1="107.208" y1="222.338" x2="112.875" y2="217.338"/>
</g>
</svg>
